<?xml version="1.0"?>
<svg width="256" height="282" xmlns="http://www.w3.org/2000/svg" xmlns:svg="http://www.w3.org/2000/svg" preserveAspectRatio="xMidYMid">
 <g class="layer">
  <title>Layer 1</title>
  <path d="m239.55,138.96c0,-14.51 -11.76,-26.27 -26.27,-26.27c-0.93,0 -1.85,0.05 -2.76,0.15l36.08,-106.42l-153.33,0l36.03,106.32a26.32,26.32 0 0 0 -1.6,-0.05c-14.51,0 -26.27,11.76 -26.27,26.27c0,11.73 7.69,21.66 18.29,25.04c-5.6,9.7 -12.65,18.44 -20.65,25.99c-10.89,10.27 -23.34,18.06 -36.81,22.85c-16.04,-8.24 -23.62,-26.56 -16.78,-42.63c0.77,-1.81 1.56,-3.65 2.31,-5.49c11.62,-2.71 20.28,-13.12 20.28,-25.57c0,-14.51 -11.76,-26.27 -26.27,-26.27s-26.27,11.76 -26.27,26.27c0,8.9 4.42,16.76 11.19,21.51c-6.5,14.8 -16.06,30.3 -19.04,48.25c-3.57,21.52 -0.01,44.37 18.6,57.27c43.35,30.04 90.41,-18.63 140.02,-30.86c17.98,-4.44 37.72,-3.72 53.56,-12.9c11.89,-6.89 19.74,-18.3 21.96,-31.12c2.2,-12.67 -1.01,-25.28 -8.38,-35.5a26.16,26.16 0 0 0 6.11,-16.84" fill="#99425b" id="svg_1"/>
  <path d="m235.5,190.2c-1.93,11.13 -8.81,20.85 -18.86,26.67c-9.37,5.43 -20.6,7.05 -32.49,8.76c-6.37,0.92 -12.95,1.87 -19.39,3.46c-17.01,4.19 -33.49,12.38 -49.42,20.29c-31.89,15.84 -59.43,29.52 -85.4,11.52c-19.02,-13.18 -18.14,-37.57 -15.93,-50.94c2.06,-12.38 7.61,-23.79 12.98,-34.82a796.62,796.62 0 0 0 2.72,-5.63a32.45,32.45 0 0 0 8.44,2.12c-5.46,18.04 3.13,37.65 21.17,46.92l2.47,1.27l2.62,-0.93c14.26,-5.08 27.4,-13.23 39.06,-24.23c7.54,-7.11 14.02,-14.98 19.34,-23.38a32.8,32.8 0 0 0 4.89,0.37c16.56,0 30.27,-12.38 32.39,-28.37c6.78,-0.25 13.98,-0.25 20.8,0c2.12,15.99 15.83,28.37 32.39,28.37c6.93,0 13.35,-2.17 18.64,-5.86c3.67,7.52 5.04,15.98 3.58,24.41zm-193.7,-70.9c10.95,0 19.85,8.9 19.85,19.85c0,3.93 -1.15,7.6 -3.13,10.69c-3.3,5.14 -8.91,8.67 -15.36,9.11c-0.45,0.03 -0.9,0.05 -1.36,0.05c-2.44,0 -4.78,-0.44 -6.94,-1.25a19.97,19.97 0 0 1 -10.3,-8.78a19.73,19.73 0 0 1 -2.61,-9.82c0,-10.95 8.9,-19.85 19.85,-19.85zm66.05,19.66c0,-9.95 7.35,-18.2 16.91,-19.63c0.96,-0.15 1.94,-0.22 2.94,-0.22c6.37,0 12.04,3.01 15.67,7.68a19.88,19.88 0 0 1 2.32,3.77a19.73,19.73 0 0 1 1.87,8.4c0,1.59 -0.19,3.13 -0.55,4.61c-1.93,8.1 -8.84,14.29 -17.3,15.15c-0.66,0.06 -1.33,0.09 -2.01,0.09a19.73,19.73 0 0 1 -10.76,-3.18c-5.46,-3.54 -9.09,-9.69 -9.09,-16.67zm82.86,-23.61a32.72,32.72 0 0 0 -8.99,15.12a304.79,304.79 0 0 0 -22.45,0c-1.68,-6.23 -5.17,-11.73 -9.85,-15.91l20.54,-41.54l20.75,42.33zm-88.49,-102.52l135.43,0l-31.99,94.35a32.48,32.48 0 0 0 -4.05,1.25l-31.6,-64.46l-31.69,64.08a32.5,32.5 0 0 0 -4.22,-1.14l-31.88,-94.08zm130.92,126.13c0,1.99 -0.3,3.91 -0.85,5.73a19.93,19.93 0 0 1 -7.65,10.54a19.74,19.74 0 0 1 -11.36,3.59c-9.17,0 -16.9,-6.25 -19.17,-14.71a19.8,19.8 0 0 1 -0.68,-5.15c0,-2.71 0.55,-5.3 1.54,-7.66a19.85,19.85 0 0 1 1.87,-3.44c3.58,-5.27 9.61,-8.75 16.44,-8.75c0.63,0 1.25,0.03 1.86,0.09c10.08,0.94 18,9.44 18,19.76zm12.83,0c0,-15.96 -11.5,-29.27 -26.64,-32.12l36.22,-106.84l-171.23,0l36.28,107.06c-14.62,3.25 -25.58,16.32 -25.58,31.9c0,11.7 6.18,21.98 15.45,27.76c-4.46,6.64 -9.75,12.89 -15.8,18.61c-9.61,9.06 -20.31,15.93 -31.85,20.46c-11.63,-7.31 -16.54,-21.07 -11.44,-33.07l0.4,-0.94l0.75,-1.76c12.77,-4.46 21.96,-16.61 21.96,-30.87c0,-18.02 -14.67,-32.69 -32.69,-32.69s-32.69,14.67 -32.69,32.69c0,9.1 3.74,17.34 9.76,23.27a552.73,552.73 0 0 1 -3.42,7.11c-5.5,11.3 -11.74,24.11 -14.1,38.33c-4.68,28.25 2.88,50.84 21.28,63.59c11.17,7.74 22.51,10.78 33.92,10.78c21.49,0 43.23,-10.79 64.5,-21.35c15.31,-7.61 31.14,-15.47 46.79,-19.33c5.82,-1.44 11.8,-2.3 18.14,-3.22c12.58,-1.81 25.58,-3.68 37.09,-10.35c13.35,-7.74 22.49,-20.71 25.07,-35.59c2.22,-12.77 -0.45,-25.57 -6.96,-36.42a32.49,32.49 0 0 0 4.79,-17.01z" fill="#fff" id="svg_2"/>
 </g>
</svg>